<svg width="63" height="64" viewBox="0 0 63 64" fill="none" xmlns="http://www.w3.org/2000/svg">
<path d="M36.2047 30.1879L45.4578 22.0094C28.5571 13.1634 3.58376 0.185598 2.17241 0L2.05945 0.0102399L36.2047 30.1879Z" fill="#08B059"/>
<path d="M0.0115862 1.8208L0 1.92V62.0794L0.0108621 62.1748L34.1561 31.9978L0.0115862 1.8208Z" fill="#1BB899"/>
<path d="M36.209 33.8123L2.06519 63.9892L2.17236 64.0001C3.59022 63.8004 28.5592 50.829 45.4577 41.9869L36.209 33.8123Z" fill="#F04F3E"/>
<path d="M60.8276 30.0798C60.8276 30.0798 55.4893 27.2651 48.0357 23.3599L38.2577 32.0023L48.0314 40.6403C55.4871 36.7345 60.8276 33.9198 60.8276 33.9198C61.9913 33.3796 63 33.0602 63 31.9998C63 30.9399 61.853 30.5758 60.8276 30.0798Z" fill="#F99C1C"/>
</svg>
