<svg width="175" height="59" viewBox="0 0 175 59" fill="none" xmlns="http://www.w3.org/2000/svg">
<path d="M0 26.2312C0 11.8718 11.6406 0.231201 26 0.231201H149C163.359 0.231201 175 11.8718 175 26.2312V32.6498C175 47.0092 163.359 58.6498 149 58.6498H26C11.6406 58.6498 0 47.0092 0 32.6498V26.2312Z" fill="#DA722C"/>
<path d="M50 20.4404L38.75 31.6904M38.75 22.6904H34.25C33.6533 22.6904 33.081 22.9275 32.659 23.3494C32.2371 23.7714 32 24.3437 32 24.9404V36.1904C32 36.7872 32.2371 37.3595 32.659 37.7814C33.081 38.2034 33.6533 38.4404 34.25 38.4404H45.5C46.0967 38.4404 46.669 38.2034 47.091 37.7814C47.5129 37.3595 47.75 36.7872 47.75 36.1904V31.6904L38.75 22.6904ZM43.25 20.4404H50H43.25ZM50 20.4404V27.1904V20.4404Z" stroke="#8E3B3B" stroke-width="2" stroke-linecap="round" stroke-linejoin="round"/>
<path d="M64.194 25.7704V28.3264H68.316V30.7024H64.194V33.4744H68.856V35.9404H61.116V23.3044H68.856V25.7704H64.194ZM76.9743 25.7884C78.1503 25.7884 79.0863 26.1724 79.7823 26.9404C80.4903 27.6964 80.8443 28.7404 80.8443 30.0724V35.9404H77.7843V30.4864C77.7843 29.8144 77.6103 29.2924 77.2623 28.9204C76.9143 28.5484 76.4463 28.3624 75.8583 28.3624C75.2703 28.3624 74.8023 28.5484 74.4543 28.9204C74.1063 29.2924 73.9323 29.8144 73.9323 30.4864V35.9404H70.8543V25.8964H73.9323V27.2284C74.2443 26.7844 74.6643 26.4364 75.1923 26.1844C75.7203 25.9204 76.3143 25.7884 76.9743 25.7884ZM86.0612 27.5704C86.4212 27.0184 86.8712 26.5864 87.4112 26.2744C87.9512 25.9504 88.5512 25.7884 89.2112 25.7884V29.0464H88.3652C87.5972 29.0464 87.0212 29.2144 86.6372 29.5504C86.2532 29.8744 86.0612 30.4504 86.0612 31.2784V35.9404H82.9832V25.8964H86.0612V27.5704ZM95.2544 36.0844C94.2704 36.0844 93.3824 35.8744 92.5904 35.4544C91.8104 35.0344 91.1924 34.4344 90.7364 33.6544C90.2924 32.8744 90.0704 31.9624 90.0704 30.9184C90.0704 29.8864 90.2984 28.9804 90.7544 28.2004C91.2104 27.4084 91.8344 26.8024 92.6264 26.3824C93.4184 25.9624 94.3064 25.7524 95.2904 25.7524C96.2744 25.7524 97.1624 25.9624 97.9544 26.3824C98.7464 26.8024 99.3704 27.4084 99.8264 28.2004C100.282 28.9804 100.51 29.8864 100.51 30.9184C100.51 31.9504 100.276 32.8624 99.8084 33.6544C99.3524 34.4344 98.7224 35.0344 97.9184 35.4544C97.1264 35.8744 96.2384 36.0844 95.2544 36.0844ZM95.2544 33.4204C95.8424 33.4204 96.3404 33.2044 96.7484 32.7724C97.1684 32.3404 97.3784 31.7224 97.3784 30.9184C97.3784 30.1144 97.1744 29.4964 96.7664 29.0644C96.3704 28.6324 95.8784 28.4164 95.2904 28.4164C94.6904 28.4164 94.1924 28.6324 93.7964 29.0644C93.4004 29.4844 93.2024 30.1024 93.2024 30.9184C93.2024 31.7224 93.3944 32.3404 93.7784 32.7724C94.1744 33.2044 94.6664 33.4204 95.2544 33.4204ZM105.221 22.6204V35.9404H102.143V22.6204H105.221ZM110.53 22.6204V35.9404H107.452V22.6204H110.53ZM127.879 35.9404H124.801L119.653 28.1464V35.9404H116.575V23.3044H119.653L124.801 31.1344V23.3044H127.879V35.9404ZM134.682 36.0844C133.698 36.0844 132.81 35.8744 132.018 35.4544C131.238 35.0344 130.62 34.4344 130.164 33.6544C129.72 32.8744 129.498 31.9624 129.498 30.9184C129.498 29.8864 129.726 28.9804 130.182 28.2004C130.638 27.4084 131.262 26.8024 132.054 26.3824C132.846 25.9624 133.734 25.7524 134.718 25.7524C135.702 25.7524 136.59 25.9624 137.382 26.3824C138.174 26.8024 138.798 27.4084 139.254 28.2004C139.71 28.9804 139.938 29.8864 139.938 30.9184C139.938 31.9504 139.704 32.8624 139.236 33.6544C138.78 34.4344 138.15 35.0344 137.346 35.4544C136.554 35.8744 135.666 36.0844 134.682 36.0844ZM134.682 33.4204C135.27 33.4204 135.768 33.2044 136.176 32.7724C136.596 32.3404 136.806 31.7224 136.806 30.9184C136.806 30.1144 136.602 29.4964 136.194 29.0644C135.798 28.6324 135.306 28.4164 134.718 28.4164C134.118 28.4164 133.62 28.6324 133.224 29.0644C132.828 29.4844 132.63 30.1024 132.63 30.9184C132.63 31.7224 132.822 32.3404 133.206 32.7724C133.602 33.2044 134.094 33.4204 134.682 33.4204ZM155.989 25.8964L153.271 35.9404H149.869L148.285 29.4244L146.647 35.9404H143.263L140.527 25.8964H143.605L145.027 33.0784L146.719 25.8964H149.977L151.687 33.0424L153.091 25.8964H155.989Z" fill="white"/>
</svg>
